<?xml version="1.0" standalone="no"?>
<!DOCTYPE svg PUBLIC "-//W3C//DTD SVG 20010904//EN"
 "http://www.w3.org/TR/2001/REC-SVG-20010904/DTD/svg10.dtd">
<svg version="1.0" xmlns="http://www.w3.org/2000/svg"
 width="256.000000pt" height="256.000000pt" viewBox="0 0 256.000000 256.000000"
 preserveAspectRatio="xMidYMid meet">

<g transform="translate(0.000000,256.000000) scale(0.100000,-0.100000)"
fill="#000000" stroke="none">
<path d="M95 2546 c-37 -16 -70 -52 -84 -89 -7 -18 -11 -171 -11 -435 0 -403
1 -407 23 -446 42 -74 64 -81 300 -84 l207 -3 0 -50 c0 -47 -1 -49 -28 -49
-41 0 -72 -26 -72 -60 0 -39 23 -50 108 -50 94 0 102 10 102 123 l0 87 46 0
c40 0 45 -2 39 -17 -4 -10 -13 -52 -21 -93 -57 -287 128 -580 421 -666 78 -22
220 -23 301 -2 l62 17 69 -70 c76 -76 109 -87 137 -47 9 12 16 26 16 31 0 5
-28 38 -62 74 -58 60 -61 65 -43 75 11 6 52 43 91 82 75 75 139 185 150 258
l7 38 286 0 c210 0 290 -3 299 -12 9 -9 12 -114 12 -409 0 -348 -2 -400 -16
-413 -12 -13 -40 -16 -144 -16 -128 0 -130 0 -146 -25 -13 -21 -15 -31 -6 -50
15 -33 41 -38 184 -34 142 5 178 19 216 85 22 39 22 39 20 461 -3 408 -4 422
-24 449 -11 15 -33 37 -48 48 -26 20 -43 21 -321 24 l-294 3 -6 47 c-19 152
-69 256 -175 363 -119 121 -243 173 -410 173 -171 0 -309 -62 -430 -191 l-68
-73 -320 0 c-278 0 -323 2 -336 16 -14 13 -16 65 -16 413 0 295 3 400 12 409
9 9 149 12 569 12 494 0 559 -2 573 -16 14 -13 16 -48 16 -224 l0 -210 25 -16
c32 -21 71 -7 80 29 4 14 5 116 3 228 -3 232 -10 255 -84 296 l-39 23 -570 -1
c-453 0 -576 -3 -600 -13z m1300 -801 c172 -45 305 -179 350 -352 65 -249 -94
-511 -350 -578 -251 -65 -513 94 -580 350 -89 343 237 669 580 580z"/>
<path d="M1161 1634 c-96 -34 -174 -105 -215 -193 -26 -56 -24 -73 9 -101 25
-21 61 3 86 54 24 52 82 108 136 132 49 22 156 22 205 0 21 -9 53 -30 73 -47
l35 -31 -25 -20 c-14 -11 -25 -30 -25 -43 0 -36 36 -55 105 -55 93 0 105 13
105 110 0 73 -2 81 -24 95 -20 13 -29 14 -46 5 -18 -10 -26 -7 -58 21 -64 57
-136 83 -232 86 -59 2 -99 -2 -129 -13z"/>
<path d="M948 1213 c-19 -22 -30 -126 -18 -158 13 -33 44 -49 71 -34 18 9 26
6 53 -19 17 -17 56 -43 86 -59 50 -25 65 -28 155 -28 87 0 107 3 156 26 72 34
133 89 170 154 36 62 37 99 5 120 -33 22 -60 7 -87 -48 -49 -97 -134 -151
-239 -150 -74 0 -121 17 -173 63 l-37 32 25 20 c30 24 32 51 5 78 -27 27 -149
29 -172 3z"/>
<path d="M711 2226 c-16 -19 -121 -335 -121 -363 0 -13 11 -29 25 -39 23 -15
27 -15 49 -1 19 13 37 54 80 184 31 92 56 175 56 184 0 39 -65 64 -89 35z"/>
<path d="M394 2118 c-46 -44 -74 -79 -74 -92 0 -32 128 -156 161 -156 62 0 66
59 9 115 l-39 38 39 43 c46 50 51 85 18 108 -12 9 -26 16 -31 16 -5 0 -42 -32
-83 -72z"/>
<path d="M870 2170 c-29 -29 -25 -45 25 -99 l45 -48 -36 -34 c-52 -50 -58 -66
-39 -95 28 -43 60 -32 137 44 37 38 68 77 68 87 0 23 -140 165 -163 165 -9 0
-26 -9 -37 -20z"/>
<path d="M1888 948 c-16 -13 -128 -337 -128 -370 0 -28 46 -53 74 -40 20 9 34
41 80 179 31 92 56 178 56 190 0 43 -48 67 -82 41z"/>
<path d="M2052 894 c-33 -23 -28 -58 18 -108 l39 -43 -39 -38 c-58 -56 -53
-115 10 -115 32 0 160 125 160 156 0 20 -138 164 -157 164 -5 0 -19 -7 -31
-16z"/>
<path d="M1190 570 c-17 -17 -20 -33 -20 -112 0 -51 5 -109 10 -128 12 -45 65
-97 111 -110 18 -6 121 -10 226 -10 l193 0 0 -50 c0 -50 0 -50 -33 -50 -65 0
-101 -56 -59 -93 16 -15 49 -17 250 -17 196 0 233 2 246 16 38 37 4 94 -56 94
l-28 0 0 83 c0 59 -5 89 -16 105 l-15 22 -343 0 c-319 0 -344 1 -359 18 -14
15 -17 40 -17 120 0 93 -2 102 -22 116 -30 21 -44 20 -68 -4z m730 -410 l0
-50 -55 0 -55 0 0 50 0 50 55 0 55 0 0 -50z"/>
</g>
</svg>
